<svg width="864" height="683" viewBox="0 0 864 683" fill="none" xmlns="http://www.w3.org/2000/svg">
<g opacity="0.5">
<path opacity="0.5" d="M73.9008 440.326C73.9008 440.326 91.0618 441.119 99.8903 433.382C118.142 417.411 99.9895 391.72 87.2923 378.725C71.0241 362.06 45.7291 351.843 41.8604 326.151C37.595 297.185 62.4932 272.089 87.6891 262.764C108.917 254.928 131.931 253.737 154.349 250.762C179.347 247.488 205.832 239.056 224.382 220.606C247.494 197.592 252.157 162.179 261.481 132.321C297.886 15.567 432.992 -15.0847 535.858 6.34176C587.242 16.9558 661.143 53.46 685.942 101.173C694.275 117.144 699.235 134.999 698.441 153.053C697.251 181.027 681.181 203.346 659.06 219.316C636.84 235.386 609.958 241.437 586.647 255.027C562.443 269.113 571.966 292.027 562.344 313.255C551.531 336.864 532.486 343.51 508.182 350.553C456.898 365.333 402.042 359.183 349.468 361.465C333.101 362.159 316.337 363.746 301.556 370.888C282.412 380.114 268.722 397.473 252.653 411.261C223.291 436.457 184.505 450.245 145.818 449.253" fill="#D9F1F9"/>
</g>
<g opacity="0.3">
<path opacity="0.3" d="M832.059 213.464C829.479 207.115 824.619 203.743 818.865 203.048C811.624 202.255 804.184 206.421 804.184 206.421C804.184 206.421 806.962 195.906 803.192 187.673C800.713 182.019 796.646 176.761 791.091 175.372C785.337 173.884 779.187 176.761 774.822 181.225C770.557 185.689 767.68 191.641 765.2 197.493C763.911 193.327 762.224 188.565 758.455 187.078C754.586 185.49 750.023 188.268 747.94 192.236C745.857 196.204 745.758 201.064 746.055 205.627C741.492 202.949 735.739 202.056 731.176 204.834C728.299 206.619 726.216 209.992 725.72 213.563H832.059V213.464Z" fill="url(#paint0_linear)"/>
</g>
<path d="M709.849 552.815L728.2 550.236C731.374 548.648 733.457 545.474 733.457 541.903V198.882C733.457 195.807 731.969 193.03 729.39 191.343L716.693 187.177L709.849 552.815Z" fill="#ADBBF9"/>
<path d="M222.299 278.735V519.683C222.299 522.262 224.283 524.346 226.862 524.544L709.849 552.815C716.197 553.212 721.455 548.153 721.455 541.804V192.137C721.455 189.062 718.677 186.681 715.602 187.276L227.655 272.288C224.58 272.784 222.299 275.561 222.299 278.735Z" fill="#CCE0FF"/>
<path d="M235.492 288.655V504.109C235.492 507.879 238.468 511.053 242.238 511.252L692.887 532.281C697.648 532.48 701.715 528.71 701.715 523.85V216.142C701.715 212.671 698.64 209.992 695.168 210.488L241.841 281.215C238.171 281.81 235.492 284.985 235.492 288.655Z" fill="#F4F4F4"/>
<path d="M366.133 320.1V516.906L657.969 530.595V289.746C657.969 282.803 651.918 277.446 645.073 278.24L376.45 308.693C370.597 309.288 366.133 314.248 366.133 320.1Z" fill="white"/>
<path d="M635.154 459.669H521.475C518.896 459.669 516.813 457.586 516.813 455.007V391.819C516.813 389.239 518.896 387.156 521.475 387.156H635.154C637.733 387.156 639.816 389.239 639.816 391.819V455.007C639.916 457.586 637.733 459.669 635.154 459.669Z" fill="#ADBBF9"/>
<path d="M158.615 444.989H38.8851V448.361H158.615V444.989Z" fill="white"/>
<path opacity="0.5" d="M189.763 625.228C229.536 625.228 261.779 621.497 261.779 616.895C261.779 612.293 229.536 608.563 189.763 608.563C149.989 608.563 117.746 612.293 117.746 616.895C117.746 621.497 149.989 625.228 189.763 625.228Z" fill="#CCE0FF"/>
<path opacity="0.5" d="M385.775 629.692C436.396 629.692 477.432 623.74 477.432 616.399C477.432 609.058 436.396 603.107 385.775 603.107C335.154 603.107 294.117 609.058 294.117 616.399C294.117 623.74 335.154 629.692 385.775 629.692Z" fill="#CCE0FF"/>
<path opacity="0.5" d="M625.929 626.915C664.991 626.915 696.656 622.385 696.656 616.797C696.656 611.209 664.991 606.679 625.929 606.679C586.868 606.679 555.202 611.209 555.202 616.797C555.202 622.385 586.868 626.915 625.929 626.915Z" fill="#CCE0FF"/>
<path opacity="0.5" d="M777.6 682.266C825.317 682.266 864 677.337 864 671.255C864 665.174 825.317 660.245 777.6 660.245C729.883 660.245 691.2 665.174 691.2 671.255C691.2 677.337 729.883 682.266 777.6 682.266Z" fill="#CCE0FF"/>
<path d="M264.755 512.342V277.743L241.245 281.413C237.873 281.909 235.393 284.786 235.393 288.258V504.307C235.393 508.077 238.369 511.152 242.039 511.35L264.755 512.342Z" fill="#2C3E50"/>
<path d="M701.715 240.346L235.492 302.542V288.159C235.492 284.786 237.972 281.81 241.345 281.314L695.268 210.488C698.64 209.992 701.715 212.571 701.715 216.043V240.346Z" fill="white"/>
<path d="M264.755 298.475L340.541 288.556V515.815L264.755 512.343V298.475Z" fill="#E0E0E0"/>
<path d="M271.103 313.752V322.977C271.103 324.862 272.691 326.35 274.575 326.151L330.224 320.596C331.812 320.398 333.101 319.108 333.101 317.422V306.907C333.101 305.023 331.415 303.535 329.53 303.733L273.881 310.478C272.294 310.875 271.103 312.165 271.103 313.752Z" fill="#2C3E50"/>
<path d="M273.187 339.641L296.101 337.558C297.49 337.459 298.581 338.451 298.581 339.84V382.395C298.581 383.585 297.589 384.676 296.398 384.676L273.484 385.668C272.195 385.768 271.103 384.676 271.103 383.387V341.923C271.103 340.732 271.996 339.741 273.187 339.641Z" fill="white"/>
<path d="M304.136 338.65V382.197C304.136 383.487 305.227 384.578 306.516 384.479L330.919 383.487C332.109 383.487 333.101 382.396 333.101 381.205V336.765C333.101 335.476 331.911 334.385 330.621 334.484L306.219 336.468C305.028 336.468 304.136 337.46 304.136 338.65Z" fill="white"/>
<path d="M273.286 390.926L296.201 390.132C297.49 390.132 298.581 391.124 298.581 392.414V436.556C298.581 437.846 297.49 438.838 296.201 438.838L273.286 438.342C271.997 438.342 271.005 437.251 271.005 436.06V393.207C271.104 391.918 272.096 390.926 273.286 390.926Z" fill="white"/>
<path d="M304.136 392.414V437.053C304.136 438.342 305.128 439.334 306.417 439.334L330.819 439.83C332.109 439.83 333.2 438.838 333.2 437.549V391.422C333.2 390.133 332.109 389.042 330.819 389.141L306.417 390.232C305.128 390.232 304.136 391.224 304.136 392.414Z" fill="white"/>
<path d="M273.484 444.195L296.399 444.691C297.688 444.691 298.68 445.782 298.68 446.972V495.38C298.68 496.67 297.589 497.761 296.299 497.662L273.385 496.967C272.195 496.967 271.203 495.876 271.203 494.686V446.575C271.103 445.187 272.195 444.096 273.484 444.195Z" fill="white"/>
<path d="M304.136 447.369V495.678C304.136 496.868 305.128 497.959 306.318 497.959L330.72 498.951C332.01 499.05 333.101 497.959 333.101 496.67V447.964C333.101 446.675 332.109 445.683 330.819 445.683L306.417 445.087C305.128 445.087 304.136 446.079 304.136 447.369Z" fill="white"/>
<path d="M246.007 314.148L254.439 313.354C256.522 313.156 258.307 314.842 258.307 316.925V324.266C258.307 326.151 256.919 327.639 255.034 327.837L246.602 328.631C244.519 328.829 242.734 327.143 242.734 325.059V317.719C242.833 315.834 244.222 314.346 246.007 314.148Z" fill="#F4F4F4"/>
<path d="M246.007 334.186L254.439 333.392C256.522 333.194 258.307 334.88 258.307 336.963V344.304C258.307 346.188 256.919 347.676 255.034 347.875L246.602 348.668C244.519 348.867 242.734 347.18 242.734 345.097V337.757C242.833 335.872 244.222 334.285 246.007 334.186Z" fill="#F4F4F4"/>
<path d="M246.007 354.125L254.439 353.331C256.522 353.133 258.307 354.819 258.307 356.902V364.243C258.307 366.128 256.919 367.615 255.034 367.814L246.602 368.607C244.519 368.806 242.734 367.119 242.734 365.036V357.696C242.833 355.811 244.222 354.323 246.007 354.125Z" fill="#F4F4F4"/>
<path d="M246.007 374.162L254.439 373.368C256.522 373.17 258.307 374.856 258.307 376.939V384.28C258.307 386.164 256.919 387.652 255.034 387.851L246.602 388.644C244.519 388.843 242.734 387.156 242.734 385.073V377.733C242.833 375.848 244.222 374.36 246.007 374.162Z" fill="#F4F4F4"/>
<path d="M277.749 320.695C276.162 320.695 274.873 319.405 274.873 317.818C274.873 316.231 276.162 314.942 277.749 314.942C279.337 314.942 280.626 316.231 280.626 317.818C280.626 319.405 279.337 320.695 277.749 320.695ZM277.749 315.834C276.658 315.834 275.765 316.727 275.765 317.818C275.765 318.909 276.658 319.802 277.749 319.802C278.841 319.802 279.733 318.909 279.733 317.818C279.832 316.727 278.841 315.834 277.749 315.834Z" fill="#919191"/>
<path d="M281.618 321.687C281.519 321.687 281.42 321.687 281.32 321.588L279.237 319.901C279.039 319.802 279.039 319.505 279.138 319.306C279.237 319.108 279.535 319.108 279.733 319.207L281.816 320.893C282.015 320.993 282.015 321.29 281.916 321.489C281.816 321.588 281.717 321.687 281.618 321.687Z" fill="#919191"/>
<path d="M270.607 286.274V287.961C270.607 289.052 271.599 289.945 272.691 289.746L284.991 287.861C285.884 287.762 286.479 286.969 286.479 286.076V284.29C286.479 283.199 285.487 282.306 284.396 282.505L272.095 284.489C271.302 284.687 270.607 285.382 270.607 286.274Z" fill="#CCE0FF"/>
<path d="M293.72 282.802V284.092C293.72 285.381 294.811 286.274 296.101 286.175L322.289 282.405C323.28 282.306 324.074 281.413 324.074 280.322V278.735C324.074 277.446 322.983 276.553 321.693 276.652L295.505 280.62C294.514 280.917 293.72 281.711 293.72 282.802Z" fill="#CCE0FF"/>
<path d="M671.857 235.783C675.911 235.783 679.198 232.497 679.198 228.443C679.198 224.389 675.911 221.102 671.857 221.102C667.803 221.102 664.517 224.389 664.517 228.443C664.517 232.497 667.803 235.783 671.857 235.783Z" fill="#ADF4FF"/>
<path d="M418.41 262.566V267.824C418.41 269.312 419.7 270.502 421.188 270.304L429.52 269.212C430.71 269.014 431.702 268.022 431.702 266.733V261.376C431.702 259.888 430.413 258.698 428.826 258.896L420.493 260.086C419.303 260.285 418.41 261.277 418.41 262.566Z" fill="#CCE0FF"/>
<path d="M437.655 259.392V265.542C437.655 266.931 438.845 267.923 440.234 267.724L449.062 266.534C450.153 266.335 451.046 265.443 451.046 264.352V258.102C451.046 256.713 449.856 255.721 448.467 255.92L439.638 257.209C438.448 257.408 437.655 258.301 437.655 259.392Z" fill="#CCE0FF"/>
<path d="M456.998 256.416V262.864C456.998 264.153 458.089 265.046 459.379 264.947L468.505 263.657C469.497 263.558 470.29 262.665 470.29 261.574V255.027C470.29 253.738 469.199 252.746 467.909 252.944L458.783 254.333C457.692 254.432 456.998 255.325 456.998 256.416Z" fill="#CCE0FF"/>
<path d="M476.241 252.845V260.88C476.241 261.674 476.936 262.368 477.828 262.269L488.343 260.781C489.038 260.682 489.534 260.087 489.534 259.392V251.159C489.534 250.365 488.839 249.671 487.946 249.77L477.432 251.357C476.737 251.655 476.241 252.151 476.241 252.845Z" fill="#CCE0FF"/>
<path d="M495.585 250.167V257.904C495.585 258.896 496.477 259.689 497.469 259.491L507.488 258.102C508.282 258.003 508.877 257.309 508.877 256.515V248.679C508.877 247.687 507.984 246.893 506.992 247.092L496.973 248.679C496.18 248.679 495.585 249.274 495.585 250.167Z" fill="#CCE0FF"/>
<path d="M649.042 229.434V237.568L657.176 236.775V229.434C657.176 226.657 654.894 224.574 652.414 224.97C650.529 225.367 649.042 227.252 649.042 229.434Z" fill="#CCE0FF"/>
<path d="M759.05 535.951C758.951 529.999 765.895 524.841 763.812 519.286C762.621 516.211 759.05 514.723 757.662 511.747C754.983 506.192 761.233 498.951 757.959 493.694C756.57 491.412 753.694 490.222 752.206 487.94C748.337 482.088 755.678 473.358 751.611 467.605C749.726 464.927 745.956 464.133 744.27 461.356C740.897 455.9 747.643 447.666 743.377 443.004C740.699 440.227 735.541 440.921 733.259 437.747C730.184 433.581 735.442 426.934 732.565 422.669C730.779 420.09 727.109 419.792 724.828 417.709C722.447 415.428 722.447 411.658 721.455 408.385C720.562 405.21 717.09 401.838 714.214 403.524C710.147 407.889 715.801 415.229 713.817 420.784C713.222 422.57 711.833 423.958 711.039 425.744C707.964 432.589 715.206 441.516 710.94 447.666C709.849 449.254 708.163 450.345 707.27 452.031C704.889 456.892 710.642 461.752 711.833 467.109C713.519 474.251 706.873 482.484 711.238 488.337C712.726 490.321 715.404 491.511 716.198 493.892C717.685 498.455 711.039 503.117 713.122 507.383C714.114 509.466 716.594 510.16 718.38 511.549C721.852 514.326 722.447 520.08 719.173 523.254C718.181 524.147 717.388 525.238 716.991 526.527C715.206 532.578 723.141 532.777 725.522 536.943C727.208 539.82 725.522 543.589 725.919 546.764C726.216 549.541 728.895 551.327 731.672 550.831C731.871 550.831 732.168 550.731 732.367 550.731C740.897 550.235 742.683 566.702 752.404 560.056C760.637 554.501 759.15 543.986 759.05 535.951Z" fill="url(#paint1_linear)"/>
<path opacity="0.3" d="M712.131 454.908C710.444 454.709 711.337 453.023 712.131 453.618C717.685 457.983 723.24 462.348 728.795 466.811C725.72 455.007 722.645 443.103 719.471 431.299C719.273 430.506 720.463 430.307 720.661 431.101L729.391 464.629C729.887 457.586 730.978 450.742 732.763 443.897C732.962 443.103 734.152 443.5 733.954 444.294C731.871 452.23 730.68 460.364 730.383 468.597C733.061 478.715 735.64 488.833 738.318 498.951C738.616 498.257 738.715 497.165 738.814 496.669C739.409 494.686 740.005 492.801 740.501 490.817C741.691 486.452 742.782 482.187 743.774 477.822C743.972 477.029 745.163 477.425 744.964 478.219C743.774 483.377 742.485 488.535 740.997 493.594C740.401 495.678 740.005 499.05 738.814 500.836C738.814 500.836 738.814 500.935 738.715 500.935C741.393 511.152 744.072 521.27 746.651 531.487C748.238 525.833 749.627 520.179 750.718 514.426C750.817 513.632 752.107 513.731 752.007 514.525C750.817 521.072 749.23 527.52 747.345 533.868L752.603 554.104C752.801 554.898 751.611 555.096 751.412 554.303C749.627 547.458 747.841 540.713 746.056 533.868C744.568 531.388 740.6 529.999 738.219 528.611C735.442 527.024 732.664 525.436 729.986 523.948C729.291 523.552 729.986 522.56 730.68 522.957C734.152 524.94 737.624 526.924 740.997 528.809C742.485 529.603 744.072 530.396 745.46 531.388C742.881 521.469 740.302 511.648 737.723 501.728C736.93 501.728 736.334 500.836 735.838 500.34C733.656 498.257 731.375 496.174 728.994 494.19C725.125 490.916 721.157 487.841 716.991 484.865C716.297 484.369 717.09 483.377 717.685 483.873C724.133 488.436 729.986 493.495 735.838 498.653C736.136 498.951 736.434 499.149 736.731 499.447C736.93 499.745 737.128 499.844 737.227 500.042C734.45 489.527 731.672 478.913 728.994 468.399C723.34 463.736 717.983 459.57 712.131 454.908Z" fill="#00366A"/>
<path d="M805.474 535.951C805.573 529.999 798.63 524.841 800.713 519.286C801.903 516.211 805.474 514.723 806.863 511.747C809.541 506.192 803.292 498.951 806.565 493.694C807.954 491.412 810.831 490.222 812.319 487.94C816.187 482.088 808.847 473.358 812.914 467.605C814.799 464.927 818.568 464.133 820.255 461.356C823.627 455.9 816.882 447.666 821.147 443.004C823.826 440.227 828.984 440.921 831.265 437.747C834.34 433.581 829.083 426.934 831.96 422.669C833.745 420.09 837.415 419.792 839.697 417.709C842.078 415.428 842.078 411.658 843.07 408.385C843.962 405.21 847.434 401.838 850.311 403.524C854.378 407.889 848.724 415.229 850.708 420.784C851.303 422.57 852.692 423.958 853.485 425.744C856.56 432.589 849.319 441.516 853.584 447.666C854.676 449.254 856.362 450.345 857.255 452.031C859.635 456.892 853.882 461.752 852.692 467.109C851.005 474.251 857.652 482.484 853.287 488.337C851.799 490.321 849.121 491.511 848.327 493.892C846.839 498.455 853.485 503.117 851.402 507.383C850.41 509.466 847.93 510.16 846.145 511.549C842.673 514.326 842.078 520.08 845.351 523.254C846.343 524.147 847.137 525.238 847.534 526.527C849.319 532.578 841.383 532.777 839.003 536.943C837.316 539.82 839.003 543.589 838.606 546.764C838.308 549.541 835.63 551.327 832.852 550.831C832.654 550.831 832.356 550.731 832.158 550.731C823.627 550.235 821.842 566.702 812.12 560.056C803.887 554.501 805.375 543.986 805.474 535.951Z" fill="url(#paint2_linear)"/>
<path opacity="0.3" d="M852.395 454.908C854.081 454.709 853.188 453.023 852.395 453.618C846.84 457.983 841.285 462.348 835.73 466.811C838.805 455.007 841.88 443.103 845.054 431.299C845.252 430.506 844.062 430.307 843.864 431.101L835.134 464.629C834.638 457.586 833.547 450.742 831.762 443.897C831.563 443.103 830.373 443.5 830.571 444.294C832.655 452.23 833.845 460.364 834.142 468.597C831.464 478.715 828.885 488.833 826.207 498.951C825.909 498.257 825.81 497.165 825.711 496.669C825.116 494.686 824.52 492.801 824.024 490.817C822.834 486.452 821.743 482.187 820.751 477.822C820.553 477.029 819.362 477.425 819.561 478.219C820.751 483.377 822.041 488.535 823.528 493.594C824.124 495.678 824.52 499.05 825.711 500.836C825.711 500.836 825.711 500.935 825.81 500.935C823.132 511.152 820.453 521.27 817.874 531.487C816.287 525.833 814.898 520.179 813.807 514.426C813.708 513.632 812.418 513.731 812.518 514.525C813.708 521.072 815.295 527.52 817.18 533.868L811.922 554.104C811.724 554.898 812.914 555.096 813.113 554.303C814.898 547.458 816.684 540.713 818.469 533.868C819.957 531.388 823.925 529.999 826.306 528.611C829.083 527.024 831.861 525.436 834.539 523.948C835.234 523.552 834.539 522.56 833.845 522.957C830.373 524.94 826.901 526.924 823.528 528.809C822.041 529.603 820.453 530.396 819.065 531.388C821.644 521.469 824.223 511.648 826.802 501.728C827.596 501.728 828.191 500.836 828.687 500.34C830.869 498.257 833.15 496.174 835.531 494.19C839.4 490.916 843.368 487.841 847.534 484.865C848.228 484.369 847.435 483.377 846.84 483.873C840.392 488.436 834.539 493.495 828.687 498.653C828.389 498.951 828.091 499.149 827.794 499.447C827.596 499.745 827.397 499.844 827.298 500.042C830.075 489.527 832.853 478.913 835.531 468.399C841.285 463.736 846.542 459.57 852.395 454.908Z" fill="#00366A"/>
<path d="M758.158 527.52C756.273 518.592 743.973 513.136 745.362 504.01C746.056 498.951 750.916 495.479 752.107 490.519C754.19 481.195 742.386 472.466 745.461 463.439C746.75 459.471 750.718 456.793 752.206 452.924C755.975 442.806 741.989 432.192 746.155 422.173C748.04 417.511 753.396 414.932 755.083 410.27C758.257 401.044 745.262 390.827 750.222 382.395C753.198 377.237 761.332 376.543 763.713 371.087C766.887 363.747 756.769 355.612 759.646 348.173C761.332 343.709 766.986 342.023 769.565 338.055C772.343 333.789 771.153 328.135 771.351 322.977C771.648 317.819 775.616 311.768 780.576 313.256C788.214 318.414 782.163 331.309 787.123 339.146C788.71 341.626 791.289 343.312 792.976 345.693C799.919 355.017 792.182 370.889 800.713 378.626C802.895 380.61 805.871 381.701 807.657 383.983C813.013 390.43 805.97 399.755 805.871 408.186C805.772 419.396 818.668 429.712 814.005 439.83C812.418 443.302 808.847 446.079 808.55 449.948C807.954 457.289 819.461 462.05 817.775 469.291C816.981 472.664 813.509 474.648 811.327 477.326C807.062 482.584 808.153 491.611 814.204 495.182C815.692 496.074 817.08 497.066 817.973 498.554C824.024 507.68 811.426 510.656 809.244 517.898C807.855 522.659 811.228 527.52 811.922 532.182C812.617 536.547 809.145 540.614 804.78 540.911C804.383 540.911 804.086 541.01 803.689 541.01C790.694 543.094 793.67 568.587 776.708 561.842C762.126 555.989 760.737 539.721 758.158 527.52Z" fill="url(#paint3_linear)"/>
<path d="M800.713 389.736C803.688 389.042 801.605 386.463 800.514 387.753C793.67 396.283 786.825 404.715 779.98 413.246C780.576 394.399 781.171 375.551 781.865 356.605C781.865 355.315 779.98 355.414 779.881 356.704L778.195 410.171C775.12 399.755 771.053 389.736 765.994 380.114C765.399 379.023 763.811 380.015 764.407 381.206C770.259 392.514 774.723 404.219 777.997 416.519C777.501 432.589 776.905 448.758 776.409 464.828C775.814 463.836 775.219 462.348 774.822 461.555C773.235 458.777 771.747 456.099 770.259 453.321C766.986 447.27 763.911 441.021 760.935 434.871C760.439 433.78 758.752 434.772 759.348 435.962C762.919 443.302 766.589 450.643 770.557 457.785C772.144 460.761 773.929 465.622 776.31 467.903L776.409 468.002C775.913 484.171 775.318 500.44 774.822 516.609C770.458 508.673 766.49 500.638 762.919 492.305C762.423 491.214 760.538 491.71 761.034 492.901C765.101 502.324 769.664 511.45 774.624 520.378L773.533 552.617C773.533 553.906 775.417 553.807 775.517 552.518C775.913 541.705 776.211 530.794 776.608 519.981C777.997 515.617 783.452 512.244 786.627 509.367C790.198 506.094 793.868 502.721 797.439 499.448C798.332 498.654 796.943 497.265 796.05 498.158C791.487 502.324 787.023 506.391 782.46 510.558C780.576 512.343 778.393 513.93 776.707 516.013C777.203 500.241 777.699 484.568 778.195 468.796C779.385 468.498 779.981 466.911 780.576 466.118C783.155 462.249 785.932 458.38 788.71 454.611C793.372 448.361 798.332 442.41 803.589 436.557C804.383 435.664 802.994 434.276 802.2 435.268C794.066 444.294 787.023 454.016 779.881 463.737C779.584 464.233 779.187 464.729 778.889 465.225C778.691 465.721 778.493 466.018 778.294 466.217C778.79 449.75 779.385 433.284 779.881 416.718C787.023 407.493 793.67 398.863 800.713 389.736Z" fill="#2D9678"/>
<path d="M844.26 550.137V576.821C844.26 623.84 828.984 657.467 822.833 669.172C821.345 671.95 818.469 673.735 815.195 673.735H750.817C747.643 673.735 744.667 671.95 743.179 669.172C737.029 657.467 721.752 623.84 721.752 576.821V550.137H844.26Z" fill="#FFC400"/>
<path d="M847.831 550.137H718.082V562.933H847.831V550.137Z" fill="#FFD740"/>
<g opacity="0.45">
<path opacity="0.45" d="M216.843 209.198H217.041C227.358 209.198 237.674 209.198 247.891 209.198C266.143 209.198 284.396 209.198 302.747 209.198C316.238 209.198 320.404 208.801 333.895 209.198C334.093 200.866 331.712 193.029 327.744 188.863C324.471 185.391 318.916 183.506 314.254 184.796C308.401 186.284 304.532 190.252 300.763 193.128C299.473 181.721 294.712 171.305 289.653 169.024C280.924 165.155 271.798 171.305 267.631 177.356C264.259 182.316 262.374 188.268 261.68 194.22C256.224 188.169 243.923 183.506 239.46 193.128C237.674 196.898 237.872 201.263 238.071 205.429C230.929 203.346 222.894 204.834 216.843 209.198Z" fill="url(#paint4_linear)"/>
</g>
<g opacity="0.4">
<path opacity="0.4" d="M671.856 156.228C669.079 145.019 643.089 128.651 629.202 138.571C624.937 117.244 620.969 103.951 606.982 93.4366C592.995 82.9218 569.783 96.7101 566.014 125.477C562.244 113.673 543.298 97.702 528.022 111.193C513.837 123.592 512.448 144.523 513.936 156.327H671.856V156.228Z" fill="url(#paint5_linear)"/>
</g>
<path d="M655.391 568.884L656.482 601.719L655.391 612.035L616.208 611.836C615.216 611.836 614.423 611.043 614.423 610.051C614.423 609.357 614.919 608.662 615.613 608.365L633.072 600.33L630.393 566.107" fill="url(#paint6_linear)"/>
<path d="M612.637 611.439C613.034 610.15 613.827 608.662 614.621 608.364L633.171 600.429C643.388 604.595 656.581 601.42 656.581 601.42L657.573 615.407C657.573 615.903 657.176 616.201 656.779 616.201L613.034 616.002C612.042 615.903 612.637 611.539 612.637 611.439Z" fill="#28313E"/>
<path d="M629.104 601.223C629.996 601.62 630.591 602.314 631.087 603.008C631.484 603.802 631.881 604.595 631.683 605.587C630.889 604.992 630.393 604.298 629.996 603.604C629.599 602.909 629.203 602.116 629.104 601.223Z" fill="#080200"/>
<path d="M626.722 602.611C627.516 602.909 628.012 603.504 628.409 604.099C628.806 604.793 629.004 605.488 628.806 606.38C628.012 605.984 627.615 605.389 627.318 604.793C627.02 604.099 626.822 603.504 626.722 602.611Z" fill="#080200"/>
<path d="M624.738 603.603C625.532 603.801 626.028 604.397 626.326 604.992C626.623 605.587 626.822 606.281 626.722 607.075C625.929 606.678 625.532 606.182 625.234 605.686C625.036 604.992 624.738 604.397 624.738 603.603Z" fill="#080200"/>
<path d="M612.477 612.224L612.47 613.514L657.406 613.751L657.413 612.462L612.477 612.224Z" fill="#080200"/>
<path d="M646.165 613.126L644.875 612.928C645.867 605.885 656.382 605.786 656.779 605.786V607.075C656.779 607.075 647.057 607.273 646.165 613.126Z" fill="#080200"/>
<path d="M621.366 613.126C620.771 611.241 617.894 607.174 617.894 607.075L618.886 606.38C618.986 606.579 621.961 610.745 622.557 612.828L621.366 613.126Z" fill="#080200"/>
<path d="M650.827 439.731C650.827 439.731 655.589 447.766 656.977 453.718C659.16 463.241 656.977 472.962 656.977 472.962L656.878 587.93H627.814C627.814 587.93 621.366 455.503 624.242 438.342" fill="#181F28"/>
<path d="M631.584 587.93C631.286 582.474 625.136 455.205 628.012 438.242L629.203 438.441C626.425 455.304 632.774 586.541 632.774 587.831L631.584 587.93Z" fill="#080200"/>
<path d="M623.251 555.989L636.444 586.144L639.321 596.163L602.915 610.547C602.023 610.944 600.932 610.448 600.634 609.555C600.336 608.86 600.535 608.067 601.13 607.571L614.323 593.584L599.146 562.833" fill="url(#paint7_linear)"/>
<path d="M599.444 611.439C599.344 610.051 599.543 608.464 600.138 607.868L614.323 593.584C625.334 593.584 636.444 585.748 636.444 585.748L642.594 598.346C642.792 598.742 642.594 599.238 642.098 599.437L601.427 615.507C600.535 615.705 599.444 611.439 599.444 611.439Z" fill="#28313E"/>
<path d="M610.851 595.767C611.843 595.767 612.636 596.164 613.331 596.66C614.025 597.156 614.62 597.85 614.918 598.842C613.926 598.644 613.232 598.148 612.636 597.652C611.942 597.156 611.347 596.561 610.851 595.767Z" fill="#080200"/>
<path d="M609.264 597.85C610.157 597.85 610.851 598.147 611.446 598.544C612.042 599.04 612.538 599.635 612.637 600.429C611.744 600.33 611.149 599.933 610.653 599.536C610.058 599.139 609.562 598.643 609.264 597.85Z" fill="#080200"/>
<path d="M607.776 599.536C608.57 599.437 609.264 599.834 609.76 600.231C610.256 600.627 610.752 601.223 610.851 602.016C610.058 601.917 609.462 601.619 608.966 601.223C608.57 600.826 608.074 600.33 607.776 599.536Z" fill="#080200"/>
<path d="M641.357 595.715L599.562 612.22L600.036 613.419L641.831 596.914L641.357 595.715Z" fill="#080200"/>
<path d="M629.996 600.727C628.31 593.882 638.031 589.815 638.428 589.617L638.924 590.807C638.825 590.807 629.798 594.576 631.286 600.429L629.996 600.727Z" fill="#080200"/>
<path d="M608.172 609.654C606.982 608.166 602.717 605.389 602.717 605.389L603.411 604.298C603.609 604.397 607.875 607.174 609.164 608.861L608.172 609.654Z" fill="#080200"/>
<path d="M600.733 458.479C585.754 495.181 585.556 499.149 583.076 517.005C580.596 535.356 608.172 589.616 608.172 589.616L634.658 577.911C634.658 577.911 617.1 528.313 618.191 519.782C620.274 504.109 638.427 477.326 638.427 477.326C638.427 477.326 647.057 470.482 648.843 461.455C650.728 452.428 646.561 442.905 646.561 442.905" fill="#28313E"/>
<path d="M628.111 463.34L627.714 462.15C628.111 462.05 639.618 458.38 639.618 458.38L640.015 459.57C640.015 459.67 628.508 463.241 628.111 463.34Z" fill="#080200"/>
<path d="M656.992 453.869L653.21 455.068L653.599 456.297L657.382 455.098L656.992 453.869Z" fill="#080200"/>
<path d="M612.339 587.235C611.248 585.053 585.357 534.165 587.936 515.814C590.416 497.562 608.768 457.487 608.966 457.09L610.156 457.586C609.958 457.983 591.706 497.86 589.226 516.012C586.746 533.967 613.231 586.144 613.529 586.739L612.339 587.235Z" fill="#080200"/>
<path d="M624.342 502.126C626.029 497.662 628.112 493.396 630.393 489.23C632.774 485.064 635.155 480.997 637.833 477.029L637.932 476.93L638.031 476.831C639.222 475.839 640.412 474.748 641.503 473.557C642.594 472.367 643.586 471.176 644.578 469.887C645.57 468.597 646.364 467.209 647.058 465.82C647.852 464.431 648.348 462.943 648.844 461.356C648.348 464.53 647.058 467.605 645.174 470.284C643.388 473.061 641.206 475.442 638.726 477.624L638.825 477.525L634.956 483.477C633.667 485.461 632.476 487.544 631.286 489.528C628.905 493.793 626.624 497.959 624.342 502.126Z" fill="#080200"/>
<path d="M598.154 367.516L596.765 368.805C596.666 364.639 595.972 360.275 594.781 359.382C587.044 353.529 577.918 358.588 577.918 358.588C577.918 358.588 574.149 376.146 580.696 379.32C581.886 379.915 583.969 380.114 586.151 380.015L588.83 385.867C601.13 390.529 605.693 380.709 605.693 380.709L598.154 367.516Z" fill="url(#paint8_linear)"/>
<path d="M594.484 353.33C591.607 348.371 585.854 349.363 576.43 354.719C575.14 355.414 572.462 355.711 572.363 357.1C572.363 358.985 573.652 362.159 575.934 362.754C577.422 363.151 578.216 363.052 579.703 362.655C581.687 362.159 584.266 362.953 584.266 365.333C584.266 365.928 584.068 367.02 584.663 367.218C584.961 367.317 585.655 367.218 585.953 367.218C586.846 367.218 587.342 368.309 587.242 369.202C587.143 370.095 587.738 370.69 587.54 371.583C587.242 373.666 589.921 375.947 592.004 376.146C593.889 376.245 599.245 375.352 601.824 371.88C604.007 368.904 603.709 363.746 600.039 356.207C598.551 353.529 595.476 352.636 594.484 353.33Z" fill="#212237"/>
<path d="M584.564 367.913C585.06 365.333 586.449 365.036 587.54 365.73C589.028 366.623 588.73 370.293 588.135 371.186C587.044 372.972 585.655 373.468 584.862 372.277" fill="url(#paint9_linear)"/>
<path d="M372.681 356.307C372.879 356.108 373.078 355.91 373.375 355.612C375.558 353.43 377.641 351.149 379.129 348.47C379.922 346.883 380.617 345.098 382.005 344.006C382.601 343.51 383.097 343.213 383.593 342.618C383.692 342.518 384.684 341.031 384.485 341.031C385.08 340.931 385.477 340.336 385.874 339.84C385.874 339.741 385.973 339.741 385.973 339.642C385.973 339.543 385.874 339.443 385.874 339.543C386.37 339.443 386.668 338.749 386.469 338.451C386.271 338.154 385.18 338.551 385.18 338.551C385.18 338.551 385.279 338.154 385.18 338.055C384.981 337.856 384.684 337.757 384.485 337.658C381.906 336.963 379.029 337.36 376.748 338.947" fill="#FFCBBD"/>
<path d="M381.906 339.443C382.302 339.542 382.699 339.344 383.195 339.245C383.691 339.145 384.286 339.046 384.782 338.848C384.981 338.749 384.981 338.55 384.782 338.55C384.286 338.55 383.79 338.649 383.195 338.749C382.798 338.848 382.302 338.947 381.906 339.245C381.806 339.344 381.806 339.443 381.906 339.443Z" fill="#F49C8E"/>
<path d="M381.41 342.122C382.699 341.328 383.89 340.535 385.279 340.039C385.378 339.94 385.378 339.741 385.179 339.84C383.691 340.039 382.501 341.229 381.311 342.023C381.112 342.023 381.311 342.221 381.41 342.122Z" fill="#F49C8E"/>
<path d="M373.97 360.969C375.557 353.232 377.144 345.594 378.731 337.857C377.243 338.353 376.351 338.551 375.359 339.245C374.168 340.039 373.375 340.733 372.581 341.626C370.002 344.8 368.117 348.669 367.324 352.637" fill="url(#paint10_linear)"/>
<path d="M315.147 376.84C315.147 376.84 344.807 371.98 347.683 369.896C350.56 367.714 368.316 345.197 368.316 345.197L382.997 356.307C382.997 356.307 364.646 383.982 359.488 387.454C354.33 390.926 335.085 401.242 318.42 399.259" fill="#E23917"/>
<path d="M366.135 616.201L346.494 414.832" stroke="#0E32AE" stroke-miterlimit="10"/>
<path d="M442.913 616.201L423.272 414.832H346.494" stroke="#0E32AE" stroke-miterlimit="10"/>
<path d="M403.532 616.201L423.272 414.832" stroke="#0E32AE" stroke-miterlimit="10"/>
<path d="M326.753 616.201L346.493 414.833H423.271" stroke="#0E32AE" stroke-miterlimit="10"/>
<path d="M439.837 587.632H329.531" stroke="#0E32AE" stroke-miterlimit="10"/>
<path d="M437.258 563.032H331.912" stroke="#0E32AE" stroke-miterlimit="10"/>
<path d="M435.274 537.637H334.392" stroke="#0E32AE" stroke-miterlimit="10"/>
<path d="M432.794 513.532H336.772" stroke="#0E32AE" stroke-miterlimit="10"/>
<path d="M430.414 488.336H339.153" stroke="#0E32AE" stroke-miterlimit="10"/>
<path d="M428.033 463.339H341.633" stroke="#0E32AE" stroke-miterlimit="10"/>
<path d="M425.157 439.73H344.014" stroke="#0E32AE" stroke-miterlimit="10"/>
<path d="M316.04 543.689L314.948 573.943L315.841 583.466H351.849C352.742 583.466 353.536 582.772 353.536 581.78C353.536 581.086 353.139 580.49 352.445 580.193L336.375 572.753L338.954 541.308" fill="url(#paint11_linear)"/>
<path d="M355.223 582.97C354.826 581.78 354.131 580.391 353.437 580.093L336.375 572.654C326.952 576.423 314.85 573.447 314.85 573.447L313.858 586.243C313.858 586.64 314.155 587.037 314.651 587.037H354.925C355.719 587.136 355.223 583.069 355.223 582.97Z" fill="#FF4432"/>
<path d="M340.045 573.448C339.946 574.341 339.649 575.035 339.252 575.729C338.855 576.325 338.359 577.019 337.665 577.515C337.565 576.622 337.863 575.829 338.26 575.134C338.657 574.44 339.252 573.745 340.045 573.448Z" fill="#B22B19"/>
<path d="M342.227 574.737C342.227 575.531 341.93 576.126 341.632 576.721C341.334 577.217 340.938 577.812 340.144 578.209C339.946 577.416 340.144 576.721 340.541 576.126C340.938 575.531 341.434 575.035 342.227 574.737Z" fill="#B22B19"/>
<path d="M344.013 575.729C344.013 576.523 343.814 577.019 343.517 577.614C343.219 578.11 342.822 578.606 342.128 578.903C341.93 578.11 342.128 577.515 342.426 577.019C342.822 576.424 343.318 575.928 344.013 575.729Z" fill="#B22B19"/>
<path d="M355.321 583.665H314.055V584.954H355.321V583.665Z" fill="#B22B19"/>
<path d="M324.273 584.458C323.479 579.002 314.552 578.903 314.452 578.903V577.613C314.849 577.613 324.57 577.812 325.463 584.26L324.273 584.458Z" fill="#B22B19"/>
<path d="M347.187 584.458L345.997 584.062C346.592 582.177 349.27 578.308 349.369 578.209L350.361 578.903C350.461 579.003 347.683 582.772 347.187 584.458Z" fill="#B22B19"/>
<path d="M308.104 430.009C308.104 430.009 304.632 445.385 312.072 464.034C312.072 464.034 315.643 483.575 315.94 505.894C316.238 528.61 313.163 557.675 313.163 568.487H342.822C342.822 568.487 346.493 537.637 346.79 506.589C347.187 471.771 344.211 432.489 344.211 422.371" fill="#ADBBF9"/>
<path d="M339.053 568.587L337.764 568.488C337.764 568.19 341.434 536.745 341.731 505.697C341.93 482.485 340.739 457.19 339.847 440.525C339.45 432.291 339.152 425.744 339.152 422.471H340.442C340.442 425.744 340.739 432.291 341.136 440.525C341.93 457.289 343.219 482.584 343.021 505.796C342.723 536.745 339.152 568.19 339.053 568.587Z" fill="#525BCE"/>
<path d="M366.134 519.088L365.042 549.343L365.935 558.866H401.944C402.836 558.866 403.63 558.171 403.63 557.179C403.63 556.485 403.233 555.89 402.539 555.592L386.469 548.153L389.048 516.707" fill="url(#paint12_linear)"/>
<path d="M405.317 558.369C404.92 557.179 404.225 555.79 403.531 555.493L386.469 548.053C377.046 551.823 364.944 548.847 364.944 548.847L363.952 561.643C363.952 562.04 364.249 562.437 364.745 562.437H405.019C405.813 562.536 405.317 558.469 405.317 558.369Z" fill="#FF4432"/>
<path d="M390.238 548.846C390.139 549.739 389.842 550.434 389.445 551.128C389.048 551.723 388.552 552.418 387.858 552.914C387.758 552.021 388.056 551.227 388.453 550.533C388.75 549.838 389.346 549.144 390.238 548.846Z" fill="#B22B19"/>
<path d="M392.321 550.137C392.321 550.93 392.024 551.525 391.726 552.121C391.429 552.617 391.032 553.212 390.238 553.609C390.04 552.815 390.238 552.121 390.635 551.525C391.131 550.93 391.528 550.434 392.321 550.137Z" fill="#B22B19"/>
<path d="M394.207 551.129C394.207 551.922 394.008 552.418 393.711 553.013C393.413 553.509 393.016 554.005 392.322 554.303C392.124 553.509 392.322 552.914 392.62 552.418C392.917 551.823 393.413 551.327 394.207 551.129Z" fill="#B22B19"/>
<path d="M405.515 559.064H364.249V560.354H405.515V559.064Z" fill="#B22B19"/>
<path d="M374.367 559.857C373.573 554.402 364.646 554.302 364.547 554.302V553.013C364.943 553.013 374.665 553.211 375.557 559.659L374.367 559.857Z" fill="#B22B19"/>
<path d="M397.381 559.858L396.191 559.461C396.786 557.576 399.464 553.708 399.563 553.609L400.555 554.303C400.555 554.402 397.877 558.172 397.381 559.858Z" fill="#B22B19"/>
<path d="M358 431.696C358 431.696 386.469 458.677 392.917 476.334C397.381 488.634 390.933 544.581 390.933 544.581H362.563C362.563 544.581 366.035 493.594 364.249 488.337C362.166 482.187 337.664 461.058 337.664 461.058C337.664 461.058 327.249 458.677 322.289 447.666C317.825 437.647 319.908 425.546 319.908 425.546" fill="#ADBBF9"/>
<path d="M384.882 544.581L383.592 544.482C383.692 543.887 389.643 486.452 385.676 476.533C380.418 463.439 351.155 432.489 350.858 432.093L351.75 431.2C352.941 432.49 381.41 462.645 386.767 476.037C390.933 486.254 385.18 542.201 384.882 544.581Z" fill="#525BCE"/>
<path d="M346.295 468.696C344.112 467.009 341.93 465.323 339.847 463.538C338.756 462.645 337.863 461.752 336.573 461.355C335.482 460.859 333.994 460.859 332.605 460.562C331.217 460.264 329.828 459.768 328.538 458.975C327.348 458.181 326.257 457.189 325.463 455.999C323.777 453.618 322.983 450.94 322.587 448.162C322.884 448.757 323.083 449.452 323.281 450.047C323.479 450.642 323.876 451.336 324.075 451.932C324.372 452.527 324.67 453.122 325.067 453.717C325.463 454.312 325.761 454.808 326.257 455.304C327.943 457.387 330.225 458.776 332.804 459.173C334.093 459.471 335.482 459.47 336.97 460.066C338.359 460.661 339.45 461.752 340.343 462.645C342.426 464.827 344.41 466.712 346.295 468.696Z" fill="#525BCE"/>
<path d="M337.466 442.211C333.994 442.211 330.324 442.112 330.125 442.112V440.822C330.224 440.822 338.656 441.12 342.128 440.822L342.227 442.112C341.037 442.112 339.351 442.211 337.466 442.211Z" fill="#525BCE"/>
<path d="M314.155 440.822H307.31V442.112H314.155V440.822Z" fill="#525BCE"/>
<path d="M342.327 349.76C342.327 349.76 337.466 351.843 332.903 351.148C328.34 350.355 327.249 348.172 327.249 348.172C327.249 348.172 315.246 349.859 309.394 386.958C305.327 413.047 306.715 434.275 306.715 434.275H361.571C361.571 434.275 363.257 377.534 360.48 367.02" fill="#FF4432"/>
<path d="M409.681 361.168L415.93 380.709" stroke="#B22B19" stroke-width="0.75" stroke-miterlimit="10"/>
<path d="M361.67 429.017H306.517V430.307H361.67V429.017Z" fill="#B22B19"/>
<path d="M352.941 434.275H351.651C351.651 433.879 352.147 399.061 351.651 383.487H352.941C353.536 398.962 352.941 433.879 352.941 434.275Z" fill="#B22B19"/>
<path d="M340.541 324.266C340.541 324.266 330.919 323.77 326.852 331.905C326.059 333.492 329.53 338.253 332.407 341.328L327.348 340.039L326.059 350.058C326.059 350.058 335.681 355.117 342.128 349.76V345.693C344.41 345.693 346.592 345.197 347.584 343.907C351.85 338.551 340.541 324.266 340.541 324.266Z" fill="url(#paint13_linear)"/>
<path d="M331.713 321.885C332.11 321.389 332.407 320.794 332.407 320.199C332.407 319.207 331.713 318.215 330.82 317.719C329.927 317.223 328.836 317.223 327.844 317.421C327.447 317.521 327.051 317.719 326.753 317.917C325.464 318.909 325.464 320.893 326.456 322.282C326.753 322.679 327.15 323.076 327.646 323.274C326.257 323.968 324.968 324.762 323.678 325.853C316.536 331.805 313.362 351.545 313.362 351.545C322.884 358.191 337.764 356.604 337.764 356.604L338.657 337.856C338.657 337.856 339.351 332.698 339.252 326.944C339.252 326.944 341.434 326.845 342.228 326.448C343.021 326.052 343.716 324.365 343.716 324.365C340.839 321.985 336.276 320.993 331.713 321.885Z" fill="#14122D"/>
<path d="M345.104 331.409C345.402 331.607 348.378 332.897 348.378 334.087C348.378 334.782 346.692 335.476 346.692 335.476" fill="#FFCBBD"/>
<path d="M194.822 570.571L193.83 602.214L194.822 612.134L232.616 611.936C233.608 611.936 234.302 611.142 234.302 610.15C234.302 609.456 233.806 608.761 233.211 608.563L216.348 600.826L218.927 567.892" fill="url(#paint14_linear)"/>
<path d="M236.087 611.638C235.69 610.348 234.996 608.959 234.202 608.662L216.347 600.924C206.527 604.892 193.73 601.817 193.73 601.817L192.738 615.308C192.738 615.705 193.135 616.102 193.532 616.102L235.69 615.903C236.583 615.903 236.087 611.638 236.087 611.638Z" fill="#18277A"/>
<path d="M220.216 601.719C220.117 602.711 219.72 603.405 219.323 604.099C218.927 604.794 218.431 605.389 217.637 605.984C217.538 604.992 217.835 604.199 218.232 603.504C218.728 602.711 219.323 602.116 220.216 601.719Z" fill="#5565AA"/>
<path d="M222.398 603.107C222.398 604 222.101 604.595 221.803 605.19C221.505 605.785 221.109 606.281 220.315 606.777C220.117 605.984 220.315 605.289 220.712 604.595C221.109 603.901 221.605 603.305 222.398 603.107Z" fill="#5565AA"/>
<path d="M224.382 604.099C224.382 604.893 224.184 605.488 223.886 605.984C223.588 606.48 223.192 606.976 222.398 607.372C222.299 606.579 222.497 605.984 222.795 605.389C223.092 604.793 223.588 604.297 224.382 604.099Z" fill="#5565AA"/>
<path d="M236.187 612.429L192.937 612.654L192.944 613.943L236.194 613.718L236.187 612.429Z" fill="#5565AA"/>
<path d="M203.65 613.325C202.857 607.571 193.433 607.472 193.334 607.472V606.183C193.731 606.183 203.948 606.381 204.841 613.126L203.65 613.325Z" fill="#5565AA"/>
<path d="M227.655 613.226L226.465 612.829C227.06 610.845 229.838 606.877 230.036 606.679L231.028 607.373C231.028 607.472 228.251 611.44 227.655 613.226Z" fill="#5565AA"/>
<path d="M198.293 457.288C198.293 457.288 218.331 494.884 224.779 518.591C231.127 542.2 222.696 595.568 222.696 595.568H191.449C191.449 595.568 197.698 537.736 190.258 518.591C182.918 499.447 156.532 449.154 156.532 449.154" fill="#ADBBF9"/>
<path d="M196.309 595.469L195.02 595.37C195.119 594.775 200.079 535.157 197.004 520.576C193.929 505.994 172.601 471.672 172.403 471.374L173.494 470.68C174.387 472.069 195.218 505.498 198.293 520.377C201.468 535.058 196.508 593.088 196.309 595.469Z" fill="#525BCE"/>
<path d="M159.011 553.013L140.561 578.407L135.502 587.037L166.153 609.059C166.947 609.654 168.038 609.456 168.534 608.662C168.931 608.067 168.931 607.273 168.534 606.678L159.507 590.509L179.942 563.825" fill="url(#paint15_linear)"/>
<path d="M169.229 610.844C169.625 609.555 169.923 608.067 169.427 607.372L159.507 590.608C149.191 588.029 140.66 578.109 140.66 578.109L131.931 588.426C131.633 588.823 131.732 589.319 132.129 589.517L166.352 614.118C167.145 614.614 169.229 610.844 169.229 610.844Z" fill="#18277A"/>
<path d="M162.186 593.485C161.492 594.18 160.798 594.576 160.103 594.874C159.409 595.172 158.615 595.469 157.623 595.37C158.119 594.576 158.814 594.08 159.607 593.684C160.5 593.386 161.294 593.287 162.186 593.485Z" fill="#5565AA"/>
<path d="M163.277 595.865C162.781 596.56 162.186 596.857 161.591 597.155C160.996 597.453 160.301 597.651 159.508 597.552C159.904 596.758 160.4 596.361 161.095 596.064C161.69 595.766 162.483 595.667 163.277 595.865Z" fill="#5565AA"/>
<path d="M164.269 597.849C163.773 598.544 163.277 598.841 162.781 599.139C162.186 599.337 161.59 599.536 160.797 599.437C161.194 598.742 161.69 598.345 162.285 598.048C162.781 597.651 163.475 597.552 164.269 597.849Z" fill="#5565AA"/>
<path d="M133.868 586.293L133.115 587.34L168.225 612.598L168.978 611.551L133.868 586.293Z" fill="#5565AA"/>
<path d="M143.24 593.683L142.149 593.088C144.827 588.029 137.288 582.375 137.288 582.276L138.082 581.284C138.28 581.581 146.414 587.632 143.24 593.683Z" fill="#5565AA"/>
<path d="M161.492 607.174L160.698 606.182C162.285 604.893 166.947 603.306 167.146 603.306L167.543 604.496C167.642 604.496 162.98 606.083 161.492 607.174Z" fill="#5565AA"/>
<path d="M148.299 449.154C142.347 466.017 148.299 479.31 148.299 479.31C148.299 479.31 168.535 516.409 168.535 523.849C168.535 530.793 142.545 570.074 142.545 570.074L166.352 589.219C166.352 589.219 203.749 549.045 203.055 521.171C202.162 486.75 183.414 449.154 183.414 449.154" fill="#ADBBF9"/>
<path d="M146.513 573.15L145.421 572.456C154.746 558.37 172.304 530.198 172.304 524.94C172.304 517.6 153.556 479.112 153.357 478.715C153.06 478.318 146.116 467.01 152.068 450.047L153.258 450.444C147.505 466.811 154.349 478.021 154.448 478.12C155.242 479.806 173.593 517.402 173.593 524.94C173.593 531.983 147.604 571.464 146.513 573.15Z" fill="#525BCE"/>
<path d="M193.532 551.723C195.516 547.755 197.401 543.688 198.889 539.423C200.476 535.256 201.666 530.892 202.162 526.527C202.46 524.345 202.46 522.163 202.361 519.881C202.162 517.699 202.162 515.417 201.865 513.235C201.369 508.771 200.674 504.406 199.881 500.042C198.194 491.313 195.814 482.682 193.036 474.152C191.647 469.886 190.159 465.72 188.572 461.554C186.985 457.387 185.299 453.221 183.513 449.154C187.58 457.09 191.052 465.422 194.028 473.854C197.004 482.286 199.385 491.015 201.17 499.744C202.063 504.109 202.658 508.573 203.055 513.136C203.353 515.318 203.353 517.6 203.452 519.881C203.65 522.163 203.452 524.444 203.154 526.626C201.765 535.653 197.996 543.986 193.532 551.723Z" fill="#525BCE"/>
<path d="M151.175 464.133C150.878 464.133 150.778 464.133 150.778 464.133L150.878 462.843C150.977 462.843 161.095 463.339 165.063 455.304L166.154 455.9C162.285 463.637 153.258 464.133 151.175 464.133Z" fill="#525BCE"/>
<path d="M192.144 468.994C191.846 468.994 191.549 468.994 191.449 468.994L191.549 467.704C192.243 467.803 193.235 467.704 193.433 467.406C193.136 465.918 190.854 458.181 190.854 458.181L192.044 457.784C192.144 458.082 194.425 465.621 194.723 467.01C194.822 467.605 194.624 468.002 194.425 468.2C193.83 468.894 192.838 468.994 192.144 468.994Z" fill="#525BCE"/>
<path fill-rule="evenodd" clip-rule="evenodd" d="M206.626 364.143C206.725 363.746 206.03 362.556 205.336 361.465C205.237 360.77 205.138 360.076 205.038 359.382C203.947 352.537 198.392 347.776 192.54 348.668C186.786 349.561 182.918 355.811 184.009 362.655C184.306 364.54 184.902 366.127 185.596 367.417L181.132 376.741C181.132 376.741 182.521 378.824 187.58 380.114C191.845 381.304 196.309 380.51 196.309 380.51L197.599 373.269C198.194 373.269 198.789 373.17 199.285 373.071C203.352 372.476 205.038 369.202 205.237 365.036C206.03 364.738 206.526 364.441 206.626 364.143Z" fill="url(#paint16_linear)"/>
<path d="M188.275 368.706C187.68 369.004 186.886 369.103 186.291 369.202C184.902 369.401 183.514 369.103 182.323 368.508C180.042 367.318 178.653 364.639 179.149 362.259C179.248 361.862 179.347 361.465 179.447 361.068C179.744 359.184 178.653 357.398 178.355 355.414C178.058 353.529 178.554 351.645 179.546 350.057C180.538 348.47 182.125 347.379 183.91 346.685C185.299 346.189 186.787 345.99 187.977 344.998C188.473 344.502 188.969 344.007 189.565 343.61C192.441 341.824 196.607 342.816 199.187 344.701C199.484 344.899 199.782 345.197 200.179 345.296C200.774 345.494 201.468 345.197 202.162 345.296C204.642 345.792 205.734 349.462 205.734 351.645C205.734 352.339 205.535 352.934 205.138 353.43C204.543 354.125 203.65 354.521 202.758 354.62C201.468 354.819 200.179 354.521 198.889 354.918C197.996 355.216 197.203 355.712 196.409 356.108C195.12 356.604 193.532 356.604 192.243 356.009C192.54 356.902 192.739 357.894 192.54 358.787C192.243 360.572 190.755 361.366 189.267 361.862C189.763 363.647 190.16 365.83 189.664 367.615C189.267 368.111 188.87 368.508 188.275 368.706Z" fill="#14122D"/>
<path d="M190.457 360.374C190.457 360.374 189.068 358.687 187.481 360.076C185.398 361.862 188.076 365.631 189.763 366.226C191.449 366.822 191.945 365.036 191.945 365.036" fill="#FFCBBB"/>
<path d="M525.31 402.767H593.458V397.708H525.31V402.767Z" fill="white"/>
<path d="M525.31 412.121H593.458V407.062H525.31V412.121Z" fill="white"/>
<path d="M525.31 421.476H593.458V416.417H525.31V421.476Z" fill="white"/>
<path d="M525.31 430.928H593.458V425.869H525.31V430.928Z" fill="white"/>
<path d="M525.31 449.736H593.458V444.677H525.31V449.736Z" fill="white"/>
<path d="M552.748 440.282H593.518V435.223H552.748V440.282Z" fill="white"/>
<path d="M548.159 435.267H525.344V440.326H548.159V435.267Z" fill="white"/>
<path d="M425.156 382.991L429.024 382.296C429.223 382.296 429.421 382.197 429.52 381.999C430.116 381.404 431.603 379.618 431.504 376.444C431.405 373.269 430.413 310.875 430.413 310.875C430.413 310.875 429.818 308.296 428.33 307.502C426.842 306.709 423.767 307.006 423.767 307.006L425.156 382.991Z" fill="#CCE0FF"/>
<path d="M375.26 316.43L376.251 379.221C376.251 381.701 378.335 383.784 380.715 383.685L424.659 382.991C427.04 382.991 429.024 380.907 429.024 378.328L427.933 311.47C427.933 308.792 425.651 306.709 423.072 307.006L379.128 311.867C376.946 312.164 375.26 314.148 375.26 316.43Z" fill="#ADBBF9"/>
<path d="M375.656 341.13C377.938 339.741 379.822 339.542 381.509 339.245C381.608 339.245 381.707 339.245 381.707 339.245C382.104 339.344 382.005 339.84 381.806 340.138C381.41 340.832 380.814 341.427 380.219 341.923C379.922 342.121 379.723 342.32 379.525 342.518C379.128 342.915 379.029 343.51 378.831 344.105C378.037 346.387 376.45 348.47 374.069 349.164" fill="url(#paint17_linear)"/>
<path d="M404.721 335.277L416.128 362.357C416.525 363.25 415.831 364.242 414.938 364.341L394.999 365.333C394.007 365.433 393.313 364.441 393.611 363.548L402.142 335.376C402.439 334.186 404.225 334.086 404.721 335.277Z" fill="white"/>
<path d="M393.115 346.585L394.504 350.652C394.603 350.851 394.603 351.148 394.504 351.347L390.437 364.54C390.239 365.036 389.842 365.433 389.247 365.433H386.668C385.874 365.433 385.279 364.639 385.477 363.846L390.834 346.585C391.231 345.494 392.818 345.494 393.115 346.585Z" fill="white"/>
<path d="M385.179 330.317C385.278 332.301 386.27 333.888 387.56 333.888C388.75 333.888 389.742 332.202 389.643 330.218C389.544 328.234 388.552 326.647 387.262 326.647C386.072 326.647 385.179 328.333 385.179 330.317Z" fill="white"/>
<path d="M408.986 363.349C411.962 361.961 425.552 356.108 425.85 356.902C426.147 357.695 421.882 360.572 422.378 360.671C422.675 360.77 426.445 359.778 428.429 358.786C430.115 357.993 432 357.497 432.397 358.191C433.289 359.481 424.858 363.448 424.858 363.448C424.858 363.448 431.306 360.175 432.198 361.266C433.389 362.754 426.048 366.623 426.048 366.623C426.048 366.623 431.405 363.548 431.901 364.837C432.397 366.127 426.346 369.599 426.346 369.599C426.346 369.599 431.306 366.424 431.504 368.011C431.802 370.095 414.541 377.435 414.541 377.435" fill="url(#paint18_linear)"/>
<path d="M346.592 377.039C346.592 377.039 362.86 394.994 378.038 394.994C393.215 394.994 421.783 378.924 421.783 378.924L414.939 360.176L381.807 372.079C381.807 372.079 364.348 355.712 356.314 352.736C348.279 349.76 342.426 349.76 342.426 349.76" fill="#FF4432"/>
<path d="M844.26 562.932V587.533C844.26 587.533 842.475 634.949 822.238 670.263C821.048 672.346 818.767 673.735 816.386 673.735H810.434C810.434 673.735 826.206 649.432 824.718 562.932H844.26Z" fill="#FFAE00"/>
<path d="M604.007 377.733C604.007 377.733 610.653 376.047 619.978 378.725C627.913 381.007 637.932 386.959 645.57 394.994C658.664 408.98 652.613 443.6 652.613 443.6L635.551 442.905C635.551 442.905 638.23 420.586 629.302 411.659C620.374 402.731 607.776 400.648 607.776 400.648" fill="#6FF7DD"/>
<path d="M587.144 382.098C587.144 382.098 591.707 384.082 596.766 382.098C601.825 380.114 604.007 377.634 604.007 377.634C604.007 377.634 615.514 376.841 629.401 390.828C643.487 404.913 654.498 444.89 654.498 444.89L596.666 464.332C596.666 464.332 586.747 429.316 582.878 413.345C579.109 397.474 587.144 382.098 587.144 382.098Z" fill="#6FF7DD"/>
<path d="M628.706 387.156C632.277 391.124 634.956 395.786 637.436 400.449C639.915 405.111 642.098 409.972 644.082 414.931C646.066 419.891 647.95 424.752 649.736 429.811C651.422 434.771 653.109 439.83 654.497 444.988L648.843 430.208C646.958 425.248 644.975 420.387 642.991 415.527C641.007 410.666 638.824 405.805 636.642 401.044C634.261 396.183 631.881 391.422 628.706 387.156Z" fill="#0AC4AE"/>
<path d="M653.174 440.892L595.455 460.028L595.861 461.252L653.579 442.116L653.174 440.892Z" fill="#0AC4AE"/>
<path d="M531.593 426.439C516.516 430.506 513.936 429.315 513.738 430.407C513.44 431.498 515.226 431.299 514.829 432.192C514.432 433.085 511.953 432.886 512.052 434.077C512.052 435.664 514.73 435.267 514.73 435.267C514.73 435.267 512.349 435.763 512.746 437.152C513.044 438.144 513.242 438.541 516.119 438.342C514.532 438.739 513.44 439.334 513.837 440.326C514.135 441.318 516.218 441.417 517.805 441.219C516.714 441.517 515.028 442.409 515.722 443.004C516.714 443.897 524.054 443.302 535.76 441.318" fill="url(#paint19_linear)"/>
<path d="M587.143 382.098C579.505 384.974 572.958 392.414 568.99 400.052C562.443 412.551 558.376 421.578 558.376 421.578L525.245 426.538L526.931 444.195C526.931 444.195 549.449 443.5 567.304 440.822C580.001 438.937 589.921 412.551 589.921 412.551" fill="#6FF7DD"/>
<path d="M585.258 422.669C585.457 420.983 586.052 419.594 586.746 418.106C587.441 416.717 588.234 415.329 589.325 414.039C589.127 415.726 588.532 417.114 587.838 418.602C587.143 420.09 586.449 421.479 585.258 422.669Z" fill="#0AC4AE"/>
<path d="M531.187 425.735L529.9 425.823L531.146 444.033L532.432 443.945L531.187 425.735Z" fill="#0AC4AE"/>
<path d="M349.642 122.649C349.642 124.038 355.793 142.984 355.793 142.984L421.659 104L349.642 122.649Z" fill="#FFC400"/>
<path d="M333.176 117.59L349.643 122.649L421.659 104L333.176 117.59Z" fill="#FFD740"/>
<path d="M336.152 129.394L335.854 127.708C338.533 127.311 340.021 127.212 340.12 127.212L340.219 128.898C340.219 128.898 338.731 128.997 336.152 129.394Z" fill="#ADBBF9"/>
<path d="M155.515 266.384C153.729 266.384 151.944 266.384 150.158 266.285L150.258 264.599C152.936 264.698 155.713 264.797 158.293 264.698V266.384C157.4 266.384 156.408 266.384 155.515 266.384ZM166.526 265.888L166.327 264.202C169.006 264.003 171.684 263.607 174.362 263.21L174.66 264.896C171.882 265.293 169.204 265.69 166.526 265.888ZM141.925 265.491C139.148 265.095 136.469 264.599 133.89 264.003L134.287 262.416C136.866 263.012 139.544 263.507 142.223 263.904L141.925 265.491ZM182.695 263.309L182.298 261.722C183.588 261.424 184.381 261.226 184.48 261.226C184.679 261.127 186.663 260.631 190.035 259.341L190.631 260.928C187.258 262.218 185.175 262.813 184.976 262.912C184.877 262.714 184.084 263.012 182.695 263.309ZM125.955 261.722C123.375 260.73 120.796 259.639 118.416 258.448L119.209 256.961C121.491 258.151 123.971 259.242 126.55 260.135L125.955 261.722ZM198.169 257.655L197.475 256.167C199.856 255.076 202.336 253.885 204.716 252.596L205.51 254.084C203.03 255.373 200.55 256.564 198.169 257.655ZM212.652 250.116L211.759 248.628C214.041 247.239 216.422 245.751 218.604 244.263L219.497 245.652C217.314 247.239 215.033 248.727 212.652 250.116ZM226.242 240.99L225.25 239.7C227.432 238.113 229.515 236.328 231.599 234.641L232.69 235.931C230.607 237.617 228.424 239.304 226.242 240.99ZM238.642 230.376L237.451 229.186C239.435 227.301 241.32 225.317 243.105 223.432L244.296 224.523C242.609 226.507 240.625 228.392 238.642 230.376ZM249.752 218.274L248.462 217.183C250.148 215.1 251.735 212.917 253.323 210.735L254.711 211.727C253.025 213.909 251.438 216.092 249.752 218.274ZM259.076 204.783L257.687 203.89C259.076 201.609 260.366 199.228 261.655 196.848L263.143 197.641C261.854 200.121 260.465 202.502 259.076 204.783ZM266.516 190.301L265.028 189.606C265.325 189.011 265.524 188.416 265.821 187.721C266.615 185.837 267.408 183.952 268.301 182.067L269.789 182.762C268.896 184.547 268.103 186.432 267.309 188.317C267.111 189.011 266.813 189.606 266.516 190.301ZM273.459 175.62L271.972 174.826C273.36 172.445 274.749 170.065 276.237 167.783L277.626 168.676C276.237 170.957 274.749 173.239 273.459 175.62ZM282.387 162.228L281.098 161.236C282.784 159.054 284.569 156.971 286.454 154.987L287.645 156.177C285.76 158.062 284.073 160.145 282.387 162.228ZM293.398 150.424L292.307 149.134C294.291 147.349 296.473 145.563 298.655 143.976L299.647 145.365C297.465 146.952 295.382 148.638 293.398 150.424ZM306.293 140.802L305.401 139.413C307.682 138.024 310.162 136.635 312.543 135.445L313.237 136.933C310.956 138.123 308.575 139.413 306.293 140.802ZM320.677 133.659L320.082 132.072C322.661 131.08 325.24 130.188 327.918 129.493L328.315 131.08C325.736 131.874 323.256 132.668 320.677 133.659Z" fill="#ADBBF9"/>
<path d="M111.373 254.183C110.182 253.389 109.091 252.497 108 251.604L109.091 250.314C110.182 251.207 111.273 252.001 112.365 252.794L111.373 254.183Z" fill="#ADBBF9"/>
<path d="M735.243 159.798C734.648 161.584 735.342 188.764 735.342 188.764L836.522 163.369L735.243 159.798Z" fill="#FFC400"/>
<path d="M715.8 146.804L735.242 159.799L836.522 163.37L715.8 146.804Z" fill="#FFD740"/>
<path d="M588.432 253.44C587.341 253.44 586.845 253.44 586.845 253.44L586.944 251.754C586.944 251.754 587.539 251.754 588.432 251.754V253.44ZM596.963 252.944L596.764 251.258C599.542 250.861 602.22 250.365 604.898 249.671L605.295 251.258C602.617 251.952 599.74 252.548 596.963 252.944ZM613.231 248.381L612.537 246.893C615.116 245.703 617.496 244.414 619.679 242.826L620.671 244.215C618.389 245.802 615.909 247.191 613.231 248.381ZM627.118 238.66L625.928 237.47C627.813 235.486 629.499 233.304 630.888 231.022L632.277 231.915C630.888 234.395 629.102 236.676 627.118 238.66ZM636.145 224.277L634.558 223.681C635.451 221.202 636.245 218.523 636.84 215.746L638.526 216.043C637.931 219.019 637.137 221.698 636.145 224.277ZM640.411 208.108L638.824 207.612C639.617 204.834 640.609 202.156 641.601 199.676L643.188 200.271C642.097 202.751 641.204 205.33 640.411 208.108ZM646.759 192.931L645.271 192.137C646.66 189.657 648.346 187.276 650.033 185.094L651.322 186.086C649.735 188.169 648.148 190.451 646.759 192.931ZM656.977 180.035L655.885 178.845C657.969 176.96 660.25 175.174 662.532 173.587L663.424 174.976C661.242 176.464 659.06 178.25 656.977 180.035ZM670.666 171.008L669.971 169.52C672.451 168.33 675.13 167.338 677.907 166.445L678.403 168.032C675.725 168.826 673.146 169.818 670.666 171.008ZM686.438 166.048L686.14 164.362C688.819 163.866 691.695 163.469 694.572 163.271L694.671 164.957C691.794 165.156 689.017 165.552 686.438 166.048ZM711.138 165.453C711.138 165.453 707.864 164.858 702.904 164.759V163.073C708.063 163.172 711.237 163.767 711.336 163.767L711.138 165.453Z" fill="#ADBBF9"/>
<path d="M591.706 386.462C586.846 386.462 584.564 383.585 584.465 383.486L585.457 382.692C585.556 382.891 589.028 387.156 597.162 384.081C605.396 381.006 605.891 377.237 605.891 377.237L607.181 377.336C607.181 377.534 606.685 381.8 597.658 385.272C595.277 386.164 593.294 386.462 591.706 386.462Z" fill="#0AC4AE"/>
<path d="M200.476 359.382C200.377 359.977 200.476 360.87 200.972 361.068C201.17 361.168 201.27 361.068 201.369 360.969C202.162 360.275 200.674 358.093 200.476 359.382Z" fill="#28364C"/>
<path d="M198.492 358.191C198.393 358.191 198.195 358.092 198.095 357.993C197.996 357.794 198.095 357.497 198.294 357.398C199.683 356.703 201.171 356.604 202.658 357.1C202.857 357.199 202.956 357.398 202.956 357.596C202.857 357.794 202.658 357.894 202.46 357.894C201.171 357.398 199.98 357.497 198.79 358.092C198.591 358.191 198.591 358.191 198.492 358.191Z" fill="#28364C"/>
<path d="M204.245 366.425H200.476C200.476 366.425 200.277 369.599 202.162 369.897C203.65 370.194 204.245 366.425 204.245 366.425Z" fill="white"/>
<path d="M197.797 373.17C197.103 373.468 196.408 373.567 195.714 373.567C195.02 373.567 194.325 373.369 193.631 373.071C192.341 372.476 191.151 371.286 191.052 369.897C191.647 370.393 191.349 370.095 192.044 370.79C193.234 371.682 193.829 371.98 194.424 372.178C195.516 372.674 196.706 373.071 197.797 373.17Z" fill="#F7958B"/>
<path d="M342.426 345.593C341.93 345.891 341.335 345.891 340.938 345.593C340.541 345.296 340.144 344.8 340.343 344.205C340.839 344.502 341.136 344.701 341.434 344.899C341.632 345.097 341.93 345.296 342.426 345.593Z" fill="#F7958B"/>
<path d="M343.517 331.507C344.013 331.904 344.41 332.598 344.211 333.094C344.112 333.194 344.013 333.293 343.815 333.293C342.723 333.293 342.525 330.714 343.517 331.507Z" fill="#28364C"/>
<path d="M341.335 331.706C341.236 331.706 341.236 331.706 341.137 331.706C340.938 331.607 340.839 331.309 340.938 331.111C341.533 329.821 342.426 329.226 343.418 329.226C343.617 329.226 343.815 329.425 343.815 329.623C343.815 329.821 343.617 330.02 343.418 330.02C342.525 330.02 341.93 330.813 341.633 331.409C341.633 331.607 341.434 331.706 341.335 331.706Z" fill="#28364C"/>
<path d="M344.41 338.848L346.89 338.054C346.89 338.054 347.882 341.129 346.691 341.526C345.402 342.022 344.41 338.848 344.41 338.848Z" fill="white"/>
<path d="M339.053 334.98C337.962 332.996 336.772 333.095 336.077 333.988C335.085 335.178 336.276 338.055 336.97 338.551C338.359 339.741 339.549 339.84 339.946 338.551" fill="url(#paint20_linear)"/>
<path d="M586.35 380.015C586.549 379.618 586.747 379.221 586.946 378.824C587.045 378.428 587.243 378.13 587.342 377.733C587.541 376.94 587.739 376.146 588.037 375.352C588.235 375.749 588.334 376.245 588.334 376.642C588.334 377.138 588.235 377.535 588.136 378.031C587.838 378.924 587.243 379.717 586.35 380.015Z" fill="#F7958B"/>
<path d="M578.514 367.021C578.216 367.616 578.117 368.508 578.613 368.905C578.712 369.004 578.91 369.004 579.109 368.905C580.101 368.31 579.109 365.731 578.514 367.021Z" fill="#28364C"/>
<path d="M577.72 365.036C578.514 364.937 579.803 365.036 580.597 365.632" stroke="#28364C" stroke-width="0.75" stroke-miterlimit="10"/>
<path d="M580.994 373.468L578.117 373.369C578.117 373.369 578.018 376.84 579.307 376.94C580.795 377.039 580.994 373.468 580.994 373.468Z" fill="white"/>
<path d="M362.067 389.636C359.289 388.347 356.71 386.66 354.131 384.974C351.651 383.189 349.171 381.403 346.89 379.221C349.667 380.51 352.246 382.197 354.826 383.883C357.306 385.668 359.785 387.553 362.067 389.636Z" fill="#B22B19"/>
<path d="M261.283 389.935L264.457 391.026C265.846 391.621 266.342 392.712 266.144 394.002L261.779 439.731L255.927 440.525L261.283 389.935Z" fill="#E6F0FF"/>
<path d="M200.179 386.066C200.377 382.792 203.452 382.197 205.039 382.395L260.887 389.835C262.276 390.033 263.367 391.621 263.267 393.406L258.308 443.104L196.806 433.878L200.179 386.066Z" fill="#ADBBF9"/>
<path d="M215.058 390.827L221.506 391.819L226.862 421.578L229.243 422.371L228.846 424.851L216.546 422.966L216.943 420.487L220.117 420.586L219.324 414.932L208.511 413.245L206.031 418.503L209.404 419.395L209.007 421.875L198.294 420.288L198.591 417.808H201.171L215.058 390.827ZM216.844 398.267L216.546 394.894L215.256 398.068L209.602 410.368L218.828 411.757L216.844 398.267Z" fill="white"/>
<path d="M235.294 413.344C238.071 412.451 241.444 412.253 245.511 412.848L245.61 411.856C245.809 410.666 245.809 409.773 245.71 409.079C245.61 408.384 245.214 407.888 244.618 407.392C244.023 406.896 243.13 406.698 241.94 406.5C240.551 406.301 239.361 406.301 238.171 406.5C236.98 406.698 235.79 406.995 234.6 407.293L233.707 404.416C234.203 404.119 234.996 403.821 235.988 403.424C237.079 403.028 238.27 402.829 239.758 402.631C241.147 402.432 242.634 402.532 244.023 402.73C246.206 403.028 247.793 403.623 248.983 404.317C250.074 405.012 250.868 406.103 251.165 407.392C251.463 408.682 251.562 410.368 251.165 412.451L249.181 425.248L251.463 425.545L251.066 427.926C250.471 428.025 249.677 428.025 248.586 428.025C247.495 428.025 246.602 427.926 245.809 427.827C244.817 427.728 244.222 427.43 243.924 427.132C243.626 426.835 243.527 426.24 243.726 425.347L243.924 424.256C243.031 424.95 241.94 425.545 240.651 426.041C239.361 426.537 237.972 426.636 236.484 426.438C235.195 426.24 234.104 425.744 233.112 425.049C232.12 424.355 231.425 423.462 230.929 422.272C230.433 421.081 230.334 419.792 230.533 418.304C231.028 415.923 232.616 414.237 235.294 413.344ZM241.94 423.264C242.734 423.065 243.428 422.669 244.122 422.272L245.214 415.427C242.734 415.03 240.75 415.229 239.361 415.824C237.972 416.518 237.179 417.51 236.98 418.8C236.782 420.089 236.98 421.181 237.476 421.974C237.972 422.768 238.766 423.264 239.857 423.462C240.452 423.561 241.147 423.462 241.94 423.264Z" fill="white"/>
<path d="M196.508 379.915C196.508 379.915 193.334 381.403 188.573 379.32C183.414 377.039 182.323 374.459 182.323 374.459C182.323 374.459 154.052 376.939 143.736 455.304L201.567 462.447C201.567 462.447 206.23 434.473 205.436 411.757C204.94 397.374 199.286 386.165 196.508 379.915Z" fill="#0088FF"/>
<path d="M247.197 433.085C250.47 433.383 265.151 434.871 265.052 435.763C264.953 436.557 259.993 436.855 260.092 437.351C260.39 438.045 264.159 438.541 266.243 438.64C268.127 438.739 271.202 439.235 271.202 440.029C271.302 441.616 260.886 440.922 260.886 440.922C260.886 441.418 272.294 439.632 272.492 440.922C272.79 442.806 260.787 443.798 260.39 444.195C260.39 444.195 270.607 440.525 270.905 441.914C271.103 443.302 262.076 446.873 259.2 446.873C261.58 446.377 268.524 442.41 268.722 443.501C268.921 444.493 262.771 447.171 261.779 447.369C253.545 448.758 245.114 447.965 245.114 447.965" fill="url(#paint21_linear)"/>
<path d="M179.545 411.261C179.545 411.261 188.473 441.02 212.479 447.468C233.905 453.221 250.57 453.221 250.57 453.221L252.852 433.184C252.852 433.184 226.664 428.521 215.95 421.379C207.717 415.924 206.13 398.564 204.047 392.414C201.17 383.883 196.508 379.915 196.508 379.915" fill="#0088FF"/>
<path d="M179.943 375.055C179.943 375.055 181.728 380.511 189.961 382.297C196.012 383.586 198.294 381.801 198.294 381.801" stroke="#002F8C" stroke-width="0.75" stroke-miterlimit="10"/>
<path d="M203.848 443.996C200.178 442.409 196.905 440.028 193.929 437.449C190.953 434.771 188.374 431.696 186.291 428.224C184.307 424.752 182.521 421.082 181.529 417.213C180.934 415.329 180.636 413.345 180.339 411.361L180.24 410.666L180.14 409.873L180.041 408.385L179.843 405.409L180.24 408.385L180.438 409.873L180.537 410.567L180.736 411.261C181.132 413.146 181.43 415.13 182.124 417.015C183.215 420.784 184.902 424.455 186.985 427.728C188.969 431.101 191.548 434.176 194.425 436.854C195.119 437.549 195.913 438.144 196.607 438.838C197.401 439.433 198.194 440.028 198.888 440.624C200.476 442.012 202.162 443.004 203.848 443.996Z" fill="#002F8C"/>
<path d="M247.991 432.192L245.015 453.023" stroke="#002F8C" stroke-width="0.75" stroke-miterlimit="10"/>
<path d="M410.58 361.683L409.368 362.122L416.438 381.613L417.65 381.173L410.58 361.683Z" fill="#B22B19"/>
<path d="M365.932 348.08L365.159 349.112L375.564 356.896L376.337 355.864L365.932 348.08Z" fill="#B22B19"/>
<defs>
<linearGradient id="paint0_linear" x1="696.524" y1="154.527" x2="866.324" y2="262.909" gradientUnits="userSpaceOnUse">
<stop offset="0.2356" stop-color="#009EFF"/>
<stop offset="0.7486" stop-color="#3FA6FF" stop-opacity="0.2"/>
</linearGradient>
<linearGradient id="paint1_linear" x1="758.411" y1="586.091" x2="711.379" y2="414.813" gradientUnits="userSpaceOnUse">
<stop stop-color="#00366A"/>
<stop offset="0.8245" stop-color="#1884C2"/>
</linearGradient>
<linearGradient id="paint2_linear" x1="806.117" y1="586.091" x2="853.15" y2="414.813" gradientUnits="userSpaceOnUse">
<stop stop-color="#00366A"/>
<stop offset="0.8245" stop-color="#1884D3"/>
</linearGradient>
<linearGradient id="paint3_linear" x1="804.213" y1="247.228" x2="757.354" y2="711.321" gradientUnits="userSpaceOnUse">
<stop stop-color="#65DB91"/>
<stop offset="0.8245" stop-color="#188486"/>
</linearGradient>
<linearGradient id="paint4_linear" x1="254.414" y1="134.955" x2="294.877" y2="272.239" gradientUnits="userSpaceOnUse">
<stop offset="0.2356" stop-color="#009EFF"/>
<stop offset="0.7486" stop-color="#3FA6FF" stop-opacity="0.2"/>
</linearGradient>
<linearGradient id="paint5_linear" x1="482.447" y1="63.2197" x2="792.483" y2="308.187" gradientUnits="userSpaceOnUse">
<stop offset="0.2356" stop-color="#009EFF"/>
<stop offset="0.7486" stop-color="#3FA6FF" stop-opacity="0.2"/>
</linearGradient>
<linearGradient id="paint6_linear" x1="673.502" y1="571.541" x2="622.678" y2="600.764" gradientUnits="userSpaceOnUse">
<stop offset="0.2079" stop-color="#FFDBC4"/>
<stop offset="0.91" stop-color="#FFA486"/>
</linearGradient>
<linearGradient id="paint7_linear" x1="672.968" y1="561.08" x2="588.021" y2="591.211" gradientUnits="userSpaceOnUse">
<stop offset="0.2079" stop-color="#FFDBC4"/>
<stop offset="0.91" stop-color="#FFA486"/>
</linearGradient>
<linearGradient id="paint8_linear" x1="557.582" y1="364.964" x2="646.341" y2="383.478" gradientUnits="userSpaceOnUse">
<stop offset="0.2079" stop-color="#FFDBC4"/>
<stop offset="0.91" stop-color="#FFA486"/>
</linearGradient>
<linearGradient id="paint9_linear" x1="575.33" y1="377.655" x2="596.571" y2="361.17" gradientUnits="userSpaceOnUse">
<stop offset="0.2079" stop-color="#FFDBC4"/>
<stop offset="0.91" stop-color="#FFA486"/>
</linearGradient>
<linearGradient id="paint10_linear" x1="363.363" y1="327.25" x2="385.81" y2="369.179" gradientUnits="userSpaceOnUse">
<stop offset="0.2079" stop-color="#FFDBC4"/>
<stop offset="0.91" stop-color="#FFA486"/>
</linearGradient>
<linearGradient id="paint11_linear" x1="276.634" y1="587.426" x2="358.677" y2="553.302" gradientUnits="userSpaceOnUse">
<stop offset="0.2079" stop-color="#FFDBC4"/>
<stop offset="0.91" stop-color="#FFA486"/>
</linearGradient>
<linearGradient id="paint12_linear" x1="339.825" y1="559.963" x2="406.017" y2="528.622" gradientUnits="userSpaceOnUse">
<stop offset="0.2079" stop-color="#FFDBC4"/>
<stop offset="0.91" stop-color="#FFA486"/>
</linearGradient>
<linearGradient id="paint13_linear" x1="372.687" y1="298.288" x2="299.719" y2="379.243" gradientUnits="userSpaceOnUse">
<stop offset="0.2079" stop-color="#FFDBC4"/>
<stop offset="0.91" stop-color="#FFA486"/>
</linearGradient>
<linearGradient id="paint14_linear" x1="174.267" y1="596.229" x2="232.835" y2="588.969" gradientUnits="userSpaceOnUse">
<stop offset="0.2079" stop-color="#FFDBC4"/>
<stop offset="0.91" stop-color="#FFA486"/>
</linearGradient>
<linearGradient id="paint15_linear" x1="96.6685" y1="528.773" x2="190.692" y2="600.651" gradientUnits="userSpaceOnUse">
<stop offset="0.2079" stop-color="#FFDBC4"/>
<stop offset="0.91" stop-color="#FFA486"/>
</linearGradient>
<linearGradient id="paint16_linear" x1="251.991" y1="350.875" x2="118.216" y2="382.639" gradientUnits="userSpaceOnUse">
<stop offset="0.2079" stop-color="#FFDBC4"/>
<stop offset="0.91" stop-color="#FFA486"/>
</linearGradient>
<linearGradient id="paint17_linear" x1="352.736" y1="335.119" x2="405.375" y2="354.057" gradientUnits="userSpaceOnUse">
<stop offset="0.2079" stop-color="#FFDBC4"/>
<stop offset="0.91" stop-color="#FFA486"/>
</linearGradient>
<linearGradient id="paint18_linear" x1="415.828" y1="318.332" x2="424.904" y2="398.016" gradientUnits="userSpaceOnUse">
<stop offset="0.2079" stop-color="#FFDBC4"/>
<stop offset="0.91" stop-color="#FFA486"/>
</linearGradient>
<linearGradient id="paint19_linear" x1="520.571" y1="386.454" x2="528.557" y2="506.978" gradientUnits="userSpaceOnUse">
<stop offset="0.2079" stop-color="#FFDBC4"/>
<stop offset="0.91" stop-color="#FFA486"/>
</linearGradient>
<linearGradient id="paint20_linear" x1="320.102" y1="326.508" x2="351.434" y2="343.985" gradientUnits="userSpaceOnUse">
<stop offset="0.2079" stop-color="#FFDBC4"/>
<stop offset="0.91" stop-color="#FFA486"/>
</linearGradient>
<linearGradient id="paint21_linear" x1="266.305" y1="421.642" x2="252.691" y2="454.133" gradientUnits="userSpaceOnUse">
<stop offset="0.2079" stop-color="#FFDBC4"/>
<stop offset="0.91" stop-color="#FFA486"/>
</linearGradient>
</defs>
</svg>
